# xmcd CD database file
#
# Track frame offsets:
#	150
#	13222
#	30495
#	43910
#	56075
#	74817
#	84932
#	100997
#	123895
#	137340
#	155017
#	165327
#	178357
#	193590
#	219352
#	229615
#	249065
#	260082
#	288045
#	307437
#	319157
#
# Disc length: 4687 seconds
#
# Revision: 0
# Processed by: cddbd v1.5.1PL0 Copyright (c) Steve Scherf et al.
# Submitted via: CDex 1.51
#
DISCID=2d124d15
DTITLE=Nina Simone - Soulful Anthology Of Nina Simone Colpix Years
DYEAR=2004
DGENRE=Jazz
TTITLE0=Zungo
TTITLE1=Forbidden Fruit
TTITLE2=The Other Woman
TTITLE3=Nobody Knows You When You're Down And Out
TTITLE4=Rags And Old Iron
TTITLE5=The Gal From Joe's
TTITLE6=Black Is The Color Of My True Love's Hair
TTITLE7=Silver City Bound
TTITLE8=Cotton Eyed Joe
TTITLE9=Blackbird
TTITLE10=Gimme A Pigfoot
TTITLE11=Children Go Where I Send You
TTITLE12=Blue Prelude
TTITLE13=Trouble In Mind
TTITLE14=Come On Back, Jack
TTITLE15=The House Of The Rising Sun
TTITLE16=You Better Know It
TTITLE17=Just In Time
TTITLE18=Little Liza Jane
TTITLE19=Work Song
TTITLE20=Flo Me La
EXTD=YEAR: 2004
EXTT0=
EXTT1=
EXTT2=
EXTT3=
EXTT4=
EXTT5=
EXTT6=
EXTT7=
EXTT8=
EXTT9=
EXTT10=
EXTT11=
EXTT12=
EXTT13=
EXTT14=
EXTT15=
EXTT16=
EXTT17=
EXTT18=
EXTT19=
EXTT20=
PLAYORDER=
